<svg width="43" height="56" viewBox="0 0 43 56" fill="none" xmlns="http://www.w3.org/2000/svg">
<g clip-path="url(#clip0)">
<path d="M18.381 3.37694H18.5257C18.7936 3.37694 19.083 3.40388 19.3697 3.42812C20.6329 3.51721 21.8872 3.70633 23.1209 3.99372V0.960994C21.8507 0.64229 20.5551 0.43591 19.2491 0.344213C18.7535 0.306506 18.2256 0.282266 17.6844 0.268799H17.2316C14.6102 0.278656 12.0002 0.615201 9.4613 1.27073C6.56953 1.99193 3.79384 3.12087 1.2168 4.62397V34.7008C3.69813 33.3525 6.33845 32.3237 9.07547 31.6384C11.2366 31.087 13.4458 30.7478 15.6721 30.6257H15.7606C16.133 30.6069 16.5054 30.5961 16.8886 30.5934V27.5122C13.9958 27.5494 11.1176 27.9319 8.31452 28.6515C7.27759 28.9208 6.2755 29.2117 5.33503 29.5349L4.26327 29.8985V6.44738L4.72145 6.22652C8.21799 4.5685 11.9998 3.60372 15.8597 3.38502C15.8918 3.38268 15.9241 3.38268 15.9562 3.38502C16.3822 3.36348 16.8109 3.3527 17.2316 3.3527H17.6924H17.7138C17.9362 3.35809 18.1586 3.36348 18.381 3.37694Z" fill="#AFB1B8"/>
<path d="M25.9374 6.5524C25.2327 6.5524 24.5361 6.52816 23.8636 6.47699C23.0597 6.41773 22.2345 6.32077 21.4521 6.1888C20.9752 6.108 20.5063 6.01104 20.0508 5.906V35.638C21.9792 36.1155 23.9594 36.349 25.9455 36.3329C28.5666 36.3223 31.1764 35.9867 33.7157 35.3337C36.608 34.6115 39.3845 33.4827 41.9629 31.9805V2.43964C39.4818 3.78713 36.8426 4.81683 34.1069 5.50468C31.437 6.19043 28.6931 6.54233 25.9374 6.5524ZM37.8259 7.06684L38.8977 6.70592V30.1651L38.4395 30.386C36.682 31.2221 34.8466 31.8816 32.9601 32.3548C30.6691 32.9476 28.3138 33.2525 25.9481 33.2625C25.2408 33.2625 24.5388 33.2329 23.8582 33.1736L23.124 33.109V30.2621V8.98451L23.9788 9.04107C24.6004 9.08147 25.2435 9.10033 25.9428 9.10033C28.9461 9.08965 31.9366 8.70608 34.8464 7.95834C35.8458 7.69439 36.8399 7.39812 37.8259 7.06684Z" fill="#AFB1B8"/>
<path d="M3.2989 44.9787C3.14483 44.8189 2.95907 44.6934 2.75368 44.6103C2.54828 44.5273 2.32782 44.4885 2.10657 44.4966C1.87079 44.4934 1.63673 44.5374 1.41797 44.6259C1.2174 44.7057 1.03508 44.8258 0.882088 44.9787C0.730763 45.1321 0.613028 45.3155 0.536446 45.5174C0.452445 45.7289 0.410569 45.9549 0.413194 46.1826V50.2011C0.403611 50.4843 0.457644 50.766 0.571278 51.0253C0.666135 51.2312 0.803077 51.4148 0.973188 51.564C1.13378 51.6992 1.32234 51.7967 1.52514 51.8495C1.72054 51.9044 1.92244 51.9325 2.12533 51.933C2.34913 51.9352 2.57062 51.8874 2.77374 51.7929C2.9746 51.705 3.15659 51.5788 3.30962 51.4212C3.45885 51.2651 3.57787 51.0824 3.66062 50.8825C3.7465 50.6799 3.79027 50.4618 3.78923 50.2415V49.7917H2.73891V50.15C2.74203 50.2723 2.72109 50.394 2.67728 50.5082C2.64308 50.5937 2.591 50.6709 2.52456 50.7344C2.45949 50.787 2.38487 50.8263 2.30485 50.8502C2.23392 50.8738 2.15984 50.8866 2.08514 50.8879C1.99136 50.8989 1.89638 50.8847 1.80981 50.8468C1.72324 50.809 1.64814 50.7488 1.59213 50.6725C1.49312 50.511 1.44458 50.3233 1.4528 50.1338V46.3873C1.44628 46.1796 1.49044 45.9734 1.58141 45.7867C1.63594 45.7019 1.71308 45.6342 1.80404 45.5913C1.89501 45.5485 1.99612 45.5322 2.09585 45.5443C2.18639 45.5411 2.27635 45.56 2.35802 45.5994C2.43969 45.6388 2.51063 45.6975 2.56475 45.7705C2.68228 45.9248 2.74374 46.1149 2.73891 46.3092V46.6567H3.77852V46.2473C3.78063 46.0068 3.73697 45.7682 3.64991 45.5443C3.57231 45.3338 3.45289 45.1413 3.2989 44.9787Z" fill="#AFB1B8"/>
<path d="M9.53885 44.9329C9.20393 44.6501 8.78122 44.4938 8.34383 44.4911C8.1299 44.4921 7.91775 44.5303 7.71686 44.6043C7.51289 44.6774 7.32465 44.7889 7.16222 44.9329C6.98821 45.0893 6.84937 45.2812 6.75495 45.4958C6.64914 45.7412 6.59706 46.0067 6.60223 46.2742V50.1284C6.59498 50.3995 6.64712 50.6689 6.75495 50.9175C6.85001 51.1248 6.98901 51.3086 7.16222 51.4562C7.32279 51.6053 7.51135 51.7207 7.71686 51.7956C7.91775 51.8695 8.1299 51.9078 8.34383 51.9087C8.55781 51.9083 8.77005 51.87 8.97081 51.7956C9.17983 51.7196 9.37259 51.6044 9.53885 51.4562C9.70638 51.3059 9.84137 51.1225 9.9354 50.9175C10.0432 50.6689 10.0954 50.3995 10.0881 50.1284V46.2742C10.0933 46.0067 10.0412 45.7412 9.9354 45.4958C9.84191 45.2834 9.70708 45.092 9.53885 44.9329ZM9.04852 50.1284C9.05737 50.2311 9.04319 50.3345 9.00702 50.431C8.97085 50.5275 8.91361 50.6146 8.83952 50.6859C8.70079 50.8022 8.52585 50.866 8.34517 50.866C8.1645 50.866 7.98956 50.8022 7.85083 50.6859C7.77674 50.6146 7.7195 50.5275 7.68333 50.431C7.64716 50.3345 7.63298 50.2311 7.64183 50.1284V46.2742C7.63298 46.1714 7.64716 46.068 7.68333 45.9715C7.7195 45.875 7.77674 45.7879 7.85083 45.7166C7.98956 45.6003 8.1645 45.5366 8.34517 45.5366C8.52585 45.5366 8.70079 45.6003 8.83952 45.7166C8.91361 45.7879 8.97085 45.875 9.00702 45.9715C9.04319 46.068 9.05737 46.1714 9.04852 46.2742V50.1284Z" fill="#AFB1B8"/>
<path d="M17.7356 51.8495V44.5532H16.7254L15.3991 48.4155H15.3804L14.0434 44.5532H13.0439V51.8495H14.0862V47.4109H14.105L15.1258 50.5486H15.6456L16.6745 47.4109H16.6933V51.8495H17.7356Z" fill="#AFB1B8"/>
<path d="M23.6569 45.0648C23.4965 44.8848 23.2939 44.7478 23.0675 44.6662C22.8235 44.5868 22.5682 44.5486 22.3119 44.5531H20.7632V51.8494H21.8028V48.9998H22.3387C22.663 49.0146 22.9858 48.946 23.2765 48.8005C23.5128 48.6693 23.7099 48.4768 23.8472 48.243C23.9674 48.0489 24.0485 47.8329 24.0856 47.6074C24.1266 47.3328 24.1454 47.0554 24.1419 46.7778C24.152 46.4274 24.1178 46.0772 24.0401 45.7355C23.9707 45.483 23.8389 45.2523 23.6569 45.0648ZM23.1211 47.2895C23.1165 47.4217 23.0836 47.5512 23.0246 47.6693C22.9652 47.7815 22.8712 47.8713 22.7567 47.9252C22.6027 47.994 22.4347 48.0254 22.2663 48.0168H21.7921V45.5362H22.328C22.4893 45.5283 22.6502 45.5597 22.7968 45.6277C22.9043 45.6894 22.9897 45.7837 23.0407 45.8971C23.0975 46.0253 23.1285 46.1635 23.1318 46.3038C23.1318 46.4573 23.1318 46.6189 23.1318 46.7886C23.1318 46.9583 23.1425 47.1333 23.1318 47.2895H23.1211Z" fill="#AFB1B8"/>
<path d="M28.5813 44.5532H27.7292L26.1216 51.8495H27.1612L27.4666 50.282H28.884L29.1895 51.8495H30.2291L28.5813 44.5532ZM27.622 49.2882L28.1338 46.6433H28.1526L28.6617 49.2882H27.622Z" fill="#AFB1B8"/>
<path d="M35.2987 48.9488H35.28L33.7099 44.5532H32.7104V51.8495H33.7501V47.4621H33.7715L35.3604 51.8495H36.3384V44.5532H35.2987V48.9488Z" fill="#AFB1B8"/>
<path d="M41.6515 44.5532L40.8156 47.454H40.7941L39.9582 44.5532H38.8569L40.2851 48.7656V51.8495H41.3247V48.7656L42.7528 44.5532H41.6515Z" fill="#AFB1B8"/>
<path d="M0.399414 53.9098H0.900461V55.3157H1.24074V53.9098H1.73911V53.6216H0.399414V53.9098Z" fill="#AFB1B8"/>
<path d="M4.61153 53.6216L3.95508 55.3157H4.3168L4.45613 54.9306H5.13133L5.27602 55.3157H5.64578L4.97325 53.6216H4.61153ZM4.55794 54.6451L4.78837 54.0175L5.0188 54.6451H4.55794Z" fill="#AFB1B8"/>
<path d="M8.77552 54.691H9.16671V54.9092C9.05247 55.0007 8.91091 55.051 8.7648 55.0519C8.69647 55.0557 8.62822 55.0431 8.56575 55.0149C8.50329 54.9868 8.44843 54.9441 8.40576 54.8903C8.31594 54.7613 8.27161 54.6058 8.27983 54.4486C8.27983 54.0715 8.44327 53.883 8.76748 53.883C8.85282 53.8745 8.93837 53.897 9.00865 53.9464C9.07893 53.9958 9.12929 54.0688 9.15063 54.1523L9.48556 54.0877C9.41322 53.7564 9.17475 53.5894 8.76748 53.5894C8.54965 53.5836 8.33783 53.6616 8.17533 53.8076C8.08998 53.8919 8.02395 53.9938 7.98183 54.1064C7.93972 54.219 7.92255 54.3394 7.93151 54.4594C7.92164 54.6912 7.99915 54.9182 8.14854 55.095C8.23155 55.1806 8.33201 55.247 8.44303 55.2898C8.55404 55.3326 8.67296 55.3507 8.7916 55.3428C9.05667 55.3502 9.3142 55.2536 9.50967 55.0735V54.4055H8.77552V54.691Z" fill="#AFB1B8"/>
<path d="M13.0275 53.6216H12.6846V55.3157H13.8715V55.0275H13.0275V53.6216Z" fill="#AFB1B8"/>
<path d="M16.6232 53.6216H16.2803V55.3157H16.6232V53.6216Z" fill="#AFB1B8"/>
<path d="M20.1385 54.7528L19.4446 53.6216H19.1123V55.3157H19.4312V54.2087L20.1117 55.3157H20.452V53.6216H20.1385V54.7528Z" fill="#AFB1B8"/>
<path d="M23.3166 54.5696H24.1606V54.2815H23.3166V53.9098H24.2249V53.6216H22.9736V55.3157H24.2597V55.0275H23.3166V54.5696Z" fill="#AFB1B8"/>
<path d="M31.0221 54.2895H30.3549V53.6216H30.0146V55.3157H30.3549V54.575H31.0221V55.3157H31.3624V53.6216H31.0221V54.2895Z" fill="#AFB1B8"/>
<path d="M34.2187 54.5696H35.0654V54.2815H34.2187V53.9098H35.1297V53.6216H33.8784V55.3157H35.1618V55.0275H34.2187V54.5696Z" fill="#AFB1B8"/>
<path d="M38.5542 54.5697C38.849 54.5239 38.999 54.3677 38.999 54.0984C39.0076 54.0263 38.9967 53.9533 38.9674 53.8869C38.9382 53.8206 38.8917 53.7634 38.8329 53.7213C38.6795 53.6443 38.5083 53.6099 38.3372 53.6217H37.6191V55.3158H37.9594V54.6074H38.0264C38.0989 54.6029 38.1715 54.6159 38.2381 54.6451C38.2878 54.6758 38.3292 54.7184 38.3587 54.769L38.7284 55.3077H39.1357L38.9294 54.9764C38.8382 54.8129 38.7096 54.6735 38.5542 54.5697ZM38.2113 54.3354H37.9594V53.9098H38.2274C38.3441 53.9004 38.4615 53.9141 38.573 53.9502C38.5978 53.9721 38.6173 53.9993 38.6302 54.0298C38.6431 54.0604 38.649 54.0934 38.6475 54.1265C38.6459 54.1596 38.637 54.192 38.6213 54.2211C38.6056 54.2503 38.5836 54.2755 38.5569 54.295C38.4451 54.3293 38.328 54.343 38.2113 54.3354Z" fill="#AFB1B8"/>
<path d="M41.8229 54.5696H42.667V54.2815H41.8229V53.9098H42.7339V53.6216H41.48V55.3157H42.7661V55.0275H41.8229V54.5696Z" fill="#AFB1B8"/>
</g>
<defs>
<clipPath id="clip0">
<rect width="42.3666" height="55.0766" fill="white" transform="translate(0.399414 0.268799)"/>
</clipPath>
</defs>
</svg>
