<svg width="95" height="49" viewBox="0 0 95 49" fill="none" xmlns="http://www.w3.org/2000/svg">
<path d="M47.7004 23.063C47.2577 22.4167 47.0459 21.6529 47.0961 20.8841V17.725C47.0961 16.7566 47.2964 16.0207 47.697 15.5172C48.0975 15.0137 48.7855 14.7631 49.7609 14.7652C50.6774 14.7652 51.328 14.9795 51.7128 15.408C52.1324 15.9547 52.3366 16.6232 52.2898 17.2976V18.04H50.6502V17.288C50.6561 17.0418 50.6402 16.7957 50.6027 16.552C50.5792 16.3854 50.4966 16.2314 50.3685 16.115C50.2001 15.9895 49.988 15.9287 49.7745 15.9446C49.5498 15.9288 49.327 15.993 49.1498 16.1246C49.0071 16.2536 48.9118 16.4226 48.8783 16.6067C48.8313 16.8645 48.8097 17.126 48.8138 17.3876V21.2216C48.7879 21.5914 48.8603 21.9615 49.0242 22.2981C49.1058 22.412 49.219 22.5023 49.3514 22.5591C49.4839 22.6158 49.6303 22.6367 49.7745 22.6195C49.9845 22.6359 50.1929 22.5736 50.3549 22.446C50.4885 22.3205 50.5745 22.1566 50.5993 21.98C50.6376 21.7256 50.6547 21.4688 50.6502 21.2119V20.4342H52.2898V21.1444C52.3358 21.8474 52.1367 22.5452 51.7229 23.1305C51.3461 23.5997 50.7046 23.8343 49.7609 23.8343C48.8172 23.8343 48.1043 23.5836 47.7004 23.063Z" fill="#AFB1B8"/>
<path d="M54.5265 23.0952C54.1123 22.6035 53.9053 21.8868 53.9053 20.9387V17.6158C53.9053 16.6774 54.1123 15.9671 54.5265 15.4851C54.9406 15.003 55.6331 14.7631 56.6039 14.7652C57.5679 14.7652 58.257 15.0052 58.6712 15.4851C59.0853 15.9671 59.2957 16.6774 59.2957 17.6158V20.9387C59.2957 21.8772 59.0853 22.597 58.6644 23.0919C58.2434 23.5868 57.5578 23.8343 56.6039 23.8343C55.65 23.8343 54.944 23.5836 54.5265 23.0952ZM57.3677 22.2981C57.516 21.9901 57.5835 21.6528 57.5645 21.3148V17.2462C57.5836 16.9147 57.5172 16.5838 57.3711 16.2821C57.2879 16.1658 57.1718 16.074 57.0362 16.0172C56.9005 15.9603 56.7507 15.9408 56.6039 15.9607C56.4566 15.9413 56.3065 15.9611 56.1704 16.0178C56.0343 16.0746 55.9176 16.1661 55.8333 16.2821C55.6841 16.583 55.6164 16.9143 55.6365 17.2462V21.334C55.6158 21.6722 55.6835 22.0099 55.8333 22.3174C55.9289 22.4211 56.0469 22.5042 56.1792 22.5611C56.3115 22.6181 56.4552 22.6475 56.6005 22.6475C56.7459 22.6475 56.8895 22.6181 57.0218 22.5611C57.1542 22.5042 57.2721 22.4211 57.3677 22.3174V22.2981Z" fill="#AFB1B8"/>
<path d="M61.2679 14.8622H63.0331L64.3604 20.9933L65.7182 14.8622H67.4359L67.609 23.7117H66.3394L66.2036 17.5614L64.8933 23.7117H63.875L62.5171 17.5389L62.3915 23.7117H61.1084L61.2679 14.8622Z" fill="#AFB1B8"/>
<path d="M69.5883 14.8622H72.3379C73.922 14.8622 74.714 15.6998 74.714 17.375C74.714 18.9796 73.8801 19.7807 72.2123 19.7786H71.2754V23.7117H69.5781L69.5883 14.8622ZM71.9373 18.6443C72.105 18.6644 72.2753 18.6499 72.4365 18.6016C72.5977 18.5533 72.7459 18.4725 72.8708 18.3647C73.0654 18.0658 73.1513 17.7148 73.1152 17.3654C73.1241 17.0954 73.0967 16.8255 73.0337 16.562C73.0095 16.4741 72.967 16.3915 72.9088 16.3192C72.8505 16.247 72.7776 16.1864 72.6943 16.1411C72.4587 16.0341 72.1982 15.9855 71.9373 15.9997H71.2788V18.6443H71.9373Z" fill="#AFB1B8"/>
<path d="M77.1614 14.8622H78.9842L80.8546 23.7117H79.2728L78.9028 21.6713H77.2768L76.8966 23.7117H75.291L77.1614 14.8622ZM78.7195 20.6462L78.0847 16.9316L77.4499 20.6462H78.7195Z" fill="#AFB1B8"/>
<path d="M82.3647 14.8622H83.5528L85.8272 19.9104V14.8622H87.2359V23.7117H86.1055L83.8176 18.4419V23.7117H82.3613L82.3647 14.8622Z" fill="#AFB1B8"/>
<path d="M90.5363 20.3375L88.6455 14.8746H90.2375L91.3917 18.3837L92.4745 14.8746H94.0326L92.1656 20.3375V23.7117H90.5363V20.3375Z" fill="#AFB1B8"/>
<path d="M50.3211 27.5809V28.0437H48.9361V31.6397H48.3556V28.0437H46.9639V27.5809H50.3211Z" fill="#AFB1B8"/>
<path d="M54.6628 31.64H54.2148C54.1692 31.6427 54.1243 31.6289 54.0892 31.6015C54.0553 31.5779 54.0293 31.5455 54.0145 31.5083L53.6139 30.5442H51.6926L51.292 31.5083C51.2806 31.5486 51.2597 31.5859 51.2309 31.6175C51.1954 31.6444 51.1507 31.6581 51.1053 31.6561H50.6572L52.3545 27.5975H52.9452L54.6628 31.64ZM51.8521 30.1329H53.4544L52.7755 28.4812C52.7254 28.3563 52.6834 28.2286 52.6498 28.0988C52.6261 28.176 52.6057 28.2499 52.5854 28.3141L52.5243 28.4844L51.8521 30.1329Z" fill="#AFB1B8"/>
<path d="M57.5891 31.2414C57.6954 31.2466 57.8019 31.2466 57.9082 31.2414C57.9999 31.2324 58.0908 31.2163 58.1797 31.1931C58.2629 31.1738 58.3446 31.1491 58.4241 31.1192C58.4988 31.0903 58.5735 31.0549 58.6516 31.0196V30.1069H57.9727C57.9559 30.1078 57.9391 30.1054 57.9233 30.0998C57.9075 30.0943 57.8931 30.0858 57.881 30.0747C57.8699 30.0656 57.861 30.0542 57.8552 30.0414C57.8493 30.0286 57.8465 30.0147 57.8471 30.0008V29.689H59.1642V31.2446C59.0567 31.3174 58.9431 31.3819 58.8247 31.4374C58.7037 31.4939 58.5776 31.5402 58.4479 31.5756C58.3091 31.6143 58.1672 31.6422 58.0236 31.6592C57.859 31.6764 57.6936 31.685 57.528 31.6849C57.2352 31.6872 56.9448 31.6359 56.6726 31.5338C56.4184 31.4371 56.1875 31.2928 55.9937 31.1096C55.8047 30.9245 55.6559 30.7061 55.5558 30.4668C55.4488 30.1978 55.3958 29.9122 55.3996 29.6248C55.396 29.3355 55.4478 29.0481 55.5524 28.7763C55.65 28.5358 55.7991 28.317 55.9903 28.1335C56.184 27.9509 56.415 27.8077 56.6692 27.7125C56.9598 27.609 57.2684 27.5578 57.5789 27.5615C57.7369 27.5613 57.8947 27.5731 58.0507 27.5968C58.1887 27.6181 58.3241 27.6526 58.4547 27.6997C58.5734 27.7419 58.6872 27.7958 58.7942 27.8604C58.8982 27.9238 58.9969 27.9947 59.0895 28.0725L58.9265 28.3232C58.9138 28.3461 58.8948 28.3653 58.8715 28.3789C58.8482 28.3924 58.8215 28.3998 58.7942 28.4003C58.7566 28.3991 58.7201 28.388 58.6889 28.3681C58.638 28.3424 58.5837 28.3103 58.5226 28.2717C58.4504 28.2289 58.3743 28.1923 58.2952 28.1625C58.194 28.124 58.0895 28.0939 57.9829 28.0725C57.8407 28.0477 57.6963 28.0358 57.5517 28.0371C57.3278 28.0348 57.1054 28.0729 56.8966 28.1496C56.7077 28.2213 56.5375 28.331 56.3976 28.471C56.2569 28.6169 56.1495 28.7887 56.0819 28.9756C55.9303 29.4152 55.9303 29.889 56.0819 30.3286C56.1562 30.5195 56.2718 30.6935 56.4214 30.8396C56.5606 30.9789 56.7295 31.0884 56.917 31.161C57.1328 31.2312 57.3616 31.2585 57.5891 31.2414Z" fill="#AFB1B8"/>
<path d="M62.9995 31.1769H64.853V31.6397H62.4326V27.5809H63.0131L62.9995 31.1769Z" fill="#AFB1B8"/>
<path d="M66.7807 31.6397H66.2002V27.5809H66.7807V31.6397Z" fill="#AFB1B8"/>
<path d="M68.9401 27.6003C68.9746 27.6189 69.0046 27.6441 69.0284 27.6742L71.5097 30.7337C71.5064 30.6856 71.5064 30.6373 71.5097 30.5891C71.5097 30.5441 71.5097 30.4991 71.5097 30.4573V27.5649H72.0155V31.64H71.7236C71.6803 31.6433 71.637 31.6356 71.598 31.6175C71.5628 31.5973 71.5317 31.5711 71.5063 31.5404L69.0284 28.4841C69.0284 28.5323 69.0284 28.5773 69.0284 28.6223C69.0284 28.6673 69.0284 28.709 69.0284 28.7476V31.64H68.543V27.581H68.8451C68.8778 27.5811 68.9102 27.5876 68.9401 27.6003Z" fill="#AFB1B8"/>
<path d="M76.2893 27.5809V28.0276H74.2322V29.3677H75.8989V29.7983H74.2322V31.1834H76.2893V31.6301H73.6348V27.5809H76.2893Z" fill="#AFB1B8"/>
<path d="M15.4627 2.51581L41.2375 9.44418V33.7224L15.4627 26.7973V2.51581ZM13.8096 0.446289V27.9766L42.8872 35.7952V8.26803L13.8096 0.446289Z" fill="#AFB1B8"/>
<path d="M29.3935 48.575L0.3125 40.7499V13.2225L29.3935 21.0443V48.575Z" fill="#AFB1B8"/>
<path d="M14.2912 2.20412L39.7298 9.04562L28.9115 19.2902L3.46942 12.4455L14.2912 2.20412ZM13.8092 0.44635L0.3125 13.2231L29.3935 21.0447L42.8868 8.26795L13.8092 0.44635Z" fill="#AFB1B8"/>
<path d="M31.0303 47.0263L42.8873 35.7986L31.0303 32.6076V47.0263Z" fill="#AFB1B8"/>
</svg>
