<svg width="63" height="51" viewBox="0 0 63 51" fill="none" xmlns="http://www.w3.org/2000/svg">
<g clip-path="url(#clip0)">
<path d="M5.11936 42.0479C5.36285 42.3505 5.49255 42.7295 5.48575 43.1184C5.49818 43.3721 5.4536 43.6254 5.35532 43.8594C5.25705 44.0935 5.10759 44.3023 4.91802 44.4705C4.44501 44.8292 3.85901 45.0045 3.26761 44.9643H0.366211V38.1804H3.2082C3.76919 38.143 4.32573 38.3023 4.78268 38.6311C4.96622 38.7854 5.11155 38.9803 5.20721 39.2006C5.30288 39.4209 5.34625 39.6604 5.33392 39.9004C5.35059 40.2747 5.23353 40.6425 5.00384 40.9377C4.78332 41.2073 4.47858 41.3941 4.13903 41.468C4.52395 41.5385 4.87139 41.7441 5.11936 42.0479ZM1.71624 41.0239H2.93093C3.207 41.0444 3.48119 40.9644 3.70332 40.7985C3.79452 40.7156 3.86548 40.6126 3.9107 40.4977C3.95592 40.3827 3.97418 40.2589 3.96408 40.1357C3.97266 40.013 3.95401 39.8899 3.90949 39.7753C3.86497 39.6607 3.79568 39.5574 3.70662 39.4729C3.47784 39.3024 3.19514 39.2211 2.91113 39.2442H1.71624V41.0239ZM3.82215 43.6254C3.91964 43.5405 3.99628 43.4341 4.04609 43.3145C4.0959 43.195 4.11754 43.0655 4.10932 42.9361C4.11675 42.8053 4.09413 42.6745 4.04319 42.5538C3.99225 42.4331 3.91437 42.3258 3.81555 42.2402C3.57789 42.0633 3.28561 41.9764 2.99035 41.9949H1.71624V43.8607H3.00685C3.29735 43.8776 3.5849 43.7946 3.82215 43.6254Z" fill="#AFB1B8"/>
<path d="M10.9287 44.9644L9.34763 42.3132H8.75348V44.9644H7.39355V38.1805H9.96818C10.6171 38.135 11.2587 38.3414 11.7605 38.7572C12.1204 39.1253 12.3375 39.6105 12.3726 40.1252C12.4077 40.6398 12.2585 41.1502 11.952 41.5642C11.6343 41.9296 11.2004 42.1731 10.7241 42.2535L12.4075 44.9644H10.9287ZM8.75348 41.3885H9.86585C10.6382 41.3885 11.0244 41.0461 11.0244 40.3612C11.0323 40.2213 11.0111 40.0813 10.9623 39.9501C10.9134 39.8189 10.8379 39.6993 10.7406 39.5989C10.4965 39.3951 10.1821 39.2963 9.86585 39.3239H8.74028L8.75348 41.3885Z" fill="#AFB1B8"/>
<path d="M18.3626 43.5988H15.6526L15.174 44.9642H13.748L16.2369 38.2565H17.7783L20.2572 44.9642H18.8313L18.3626 43.5988ZM17.9995 42.5715L17.0092 39.7081L16.019 42.5715H17.9995Z" fill="#AFB1B8"/>
<path d="M27.6669 44.9643H26.3169L23.2901 40.3511V44.9643H21.9434V38.1804H23.2901L26.3169 42.8201V38.1804H27.6669V44.9643Z" fill="#AFB1B8"/>
<path d="M35.3719 43.3405C35.0927 43.8527 34.6674 44.2693 34.1506 44.5369C33.5629 44.8349 32.9107 44.9818 32.2526 44.9644H29.8496V38.1805H32.2526C32.9096 38.1632 33.5609 38.3065 34.1506 38.598C34.6673 38.8595 35.0931 39.272 35.3719 39.7812C35.6497 40.3329 35.7945 40.9425 35.7945 41.5608C35.7945 42.1791 35.6497 42.7887 35.3719 43.3405ZM33.8271 43.1781C34.2124 42.7274 34.4242 42.1531 34.4242 41.5592C34.4242 40.9652 34.2124 40.3909 33.8271 39.9402C33.3614 39.532 32.7541 39.3248 32.1371 39.3636H31.1996V43.7547H32.1371C32.7541 43.7935 33.3614 43.5863 33.8271 43.1781Z" fill="#AFB1B8"/>
<path d="M19.207 0.446289C19.207 0.446289 36.632 7.05125 36.2623 16.6091V32.7751C36.2623 32.7751 18.8505 26.1669 19.2136 16.6091L19.207 0.446289Z" fill="#AFB1B8"/>
<path d="M51.7861 28.9904C55.077 26.7166 58.8835 25.3082 62.857 24.8942V19.8336C58.2786 21.6053 54.3946 24.8178 51.7861 28.9904Z" fill="#AFB1B8"/>
<path d="M49.8093 30.515C52.5028 25.0696 57.1724 20.8675 62.8574 18.7732V4.19128C62.8574 4.19128 38.042 13.6 38.5668 27.2109V50.2271C38.5668 50.2271 39.6726 49.8063 41.4121 49.0175C41.4121 48.2818 41.4121 47.5394 41.4913 46.7938C42.0049 40.4749 44.9968 34.6195 49.8093 30.515Z" fill="#AFB1B8"/>
<path d="M47.4493 39.0653C47.5796 37.469 47.8705 35.8901 48.3174 34.3527C45.3208 37.8973 43.5061 42.2957 43.1285 46.9296C43.0922 47.367 43.0724 47.8045 43.0625 48.2552C44.4719 47.5758 46.1124 46.7274 47.8355 45.7299C47.3957 43.5376 47.2657 41.294 47.4493 39.0653Z" fill="#AFB1B8"/>
<path d="M48.4367 39.1482C48.2715 41.1646 48.3747 43.1941 48.7437 45.1831C55.5235 41.1101 63.1418 34.8167 62.848 27.2109V26.548C58.004 27.0922 53.4721 29.2183 49.9484 32.5995C49.1235 34.6949 48.6139 36.902 48.4367 39.1482Z" fill="#AFB1B8"/>
</g>
<defs>
<clipPath id="clip0">
<rect width="62.4908" height="49.7808" fill="white" transform="translate(0.366211 0.446289)"/>
</clipPath>
</defs>
</svg>
