<svg width="44" height="46" viewBox="0 0 44 46" fill="none" xmlns="http://www.w3.org/2000/svg">
<path d="M6.95323 44.8319C6.96914 44.8324 6.98479 44.8358 6.99929 44.842C7.01379 44.8483 7.02684 44.8572 7.03769 44.8683L7.25563 45.0967C7.08646 45.2816 6.87737 45.4295 6.64266 45.5303C6.36781 45.6402 6.07159 45.6933 5.7736 45.686C5.49359 45.6915 5.21538 45.642 4.9563 45.5406C4.72261 45.4475 4.51264 45.3076 4.34061 45.1305C4.16504 44.9467 4.0298 44.7314 3.94286 44.4971C3.84764 44.2359 3.80063 43.961 3.80392 43.6845C3.80005 43.4063 3.85087 43.1298 3.95375 42.8694C4.04892 42.6336 4.19248 42.4183 4.37602 42.236C4.56205 42.0573 4.78459 41.9168 5.02986 41.8232C5.29818 41.7241 5.58391 41.6748 5.87168 41.6779C6.13898 41.6717 6.40486 41.7167 6.65356 41.8103C6.86933 41.8995 7.06744 42.0233 7.23928 42.1763L7.05676 42.4203C7.04415 42.4375 7.02847 42.4524 7.01044 42.4644C6.98891 42.4785 6.96288 42.4849 6.93689 42.4826C6.90861 42.4808 6.88135 42.4718 6.85788 42.4567L6.7598 42.3918L6.62359 42.3087C6.56479 42.2778 6.50379 42.251 6.44106 42.2282C6.36026 42.2007 6.27738 42.179 6.19315 42.1633C6.08624 42.1445 5.97765 42.1358 5.86895 42.1374C5.66174 42.1349 5.4561 42.1719 5.26415 42.2464C5.08514 42.3153 4.92356 42.4197 4.79012 42.5527C4.65428 42.6941 4.54959 42.8601 4.48227 43.0407C4.40554 43.2474 4.36773 43.4653 4.37057 43.6845C4.3673 43.9072 4.40511 44.1286 4.48227 44.3387C4.54875 44.5178 4.65149 44.6828 4.78467 44.8242C4.90945 44.956 5.06411 45.059 5.23691 45.1253C5.41474 45.1955 5.60562 45.2309 5.79812 45.2291C5.90931 45.2308 6.02047 45.2238 6.13049 45.2084C6.31013 45.1875 6.48246 45.128 6.63449 45.0344C6.71074 44.9865 6.78272 44.9327 6.84971 44.8735C6.87771 44.848 6.91455 44.8332 6.95323 44.8319Z" fill="#AFB1B8"/>
<path d="M13.2463 43.6841C13.2497 43.9595 13.1998 44.2331 13.0992 44.4913C13.0104 44.7255 12.8705 44.9392 12.6888 45.1181C12.5071 45.2971 12.2876 45.4373 12.0449 45.5296C11.5115 45.7235 10.9219 45.7235 10.3885 45.5296C10.1473 45.4359 9.92928 45.2954 9.74829 45.1169C9.56668 44.9347 9.4258 44.7192 9.3342 44.4835C9.13795 43.9607 9.13795 43.3892 9.3342 42.8664C9.42713 42.6306 9.56783 42.4145 9.74829 42.2304C9.93082 42.0576 10.1487 41.9224 10.3885 41.8333C10.9212 41.636 11.5122 41.636 12.0449 41.8333C12.2869 41.9269 12.5058 42.0675 12.6878 42.246C12.8672 42.4264 13.007 42.6391 13.0992 42.8716C13.2001 43.1315 13.25 43.4069 13.2463 43.6841ZM12.6742 43.6841C12.6785 43.4637 12.6435 43.2443 12.5707 43.0351C12.5096 42.8559 12.4104 42.6907 12.2792 42.5497C12.1514 42.4163 11.9942 42.3117 11.8188 42.2434C11.4312 42.1015 11.0022 42.1015 10.6146 42.2434C10.4392 42.3117 10.2819 42.4163 10.1542 42.5497C10.0212 42.6898 9.92088 42.8553 9.85999 43.0351C9.72138 43.4577 9.72138 43.9104 9.85999 44.333C9.92148 44.5126 10.0217 44.6779 10.1542 44.8184C10.2821 44.951 10.4394 45.0547 10.6146 45.1221C11.0029 45.2604 11.4305 45.2604 11.8188 45.1221C11.994 45.0547 12.1513 44.951 12.2792 44.8184C12.4098 44.6771 12.509 44.5119 12.5707 44.333C12.6438 44.1239 12.6788 43.9044 12.6742 43.6841Z" fill="#AFB1B8"/>
<path d="M17.5398 44.3645L17.597 44.5098C17.6188 44.4579 17.6379 44.4112 17.6597 44.3645C17.6805 44.3157 17.7041 44.268 17.7305 44.2217L19.1227 41.8106C19.1499 41.7691 19.1744 41.7431 19.2017 41.7353C19.2387 41.7246 19.2774 41.7202 19.3161 41.7223H19.7274V45.644H19.2398V42.7605C19.2398 42.7242 19.2398 42.6826 19.2398 42.6385C19.2372 42.5936 19.2372 42.5485 19.2398 42.5036L17.8395 44.9485C17.8217 44.9851 17.7933 45.016 17.7575 45.0377C17.7218 45.0593 17.6802 45.0707 17.6379 45.0704H17.5589C17.5165 45.071 17.4748 45.0598 17.439 45.0381C17.4032 45.0164 17.3748 44.9853 17.3573 44.9485L15.9161 42.488C15.9161 42.5347 15.9161 42.5814 15.9161 42.6281C15.9161 42.6749 15.9161 42.7164 15.9161 42.7527V45.6362H15.4448V41.7223H15.8562C15.8948 41.7202 15.9336 41.7246 15.9706 41.7353C16.0044 41.7513 16.0313 41.7779 16.0469 41.8106L17.469 44.2243C17.4969 44.2689 17.5206 44.3158 17.5398 44.3645Z" fill="#AFB1B8"/>
<path d="M22.7788 44.1696V45.6386H22.2339V41.7222H23.4489C23.6783 41.718 23.907 41.7469 24.1273 41.8078C24.3036 41.8555 24.4672 41.9387 24.6068 42.0518C24.7278 42.1579 24.8211 42.2894 24.8792 42.4359C24.9435 42.5957 24.975 42.7657 24.9718 42.9368C24.9742 43.1086 24.9399 43.279 24.871 43.4377C24.8055 43.588 24.7049 43.722 24.5768 43.8296C24.437 43.9475 24.2727 44.0359 24.0946 44.0892C23.8825 44.1537 23.6607 44.1844 23.438 44.18L22.7788 44.1696ZM22.7788 43.7492H23.438C23.5812 43.7509 23.7238 43.7308 23.8603 43.6895C23.9729 43.6534 24.0767 43.596 24.1654 43.5208C24.2473 43.449 24.3107 43.3602 24.3507 43.2612C24.3953 43.1566 24.4175 43.0446 24.4161 42.9316C24.4224 42.8228 24.4038 42.7139 24.3614 42.6126C24.3191 42.5113 24.254 42.42 24.1709 42.3451C23.9627 42.1903 23.7013 42.1153 23.438 42.1349H22.7788V43.7492Z" fill="#AFB1B8"/>
<path d="M30.1013 45.6439H29.6708C29.6277 45.6455 29.5853 45.6326 29.551 45.6076C29.5201 45.5831 29.4958 45.552 29.4801 45.5167L29.1096 44.5693H27.2489L26.8648 45.5167C26.8507 45.5513 26.8272 45.5818 26.7967 45.605C26.7621 45.6315 26.7185 45.6454 26.6741 45.6439H26.2437L27.8782 41.7218H28.4449L30.1013 45.6439ZM27.4042 44.1877H28.9407L28.2923 42.5914C28.2428 42.4713 28.2018 42.3481 28.1697 42.2228L28.1071 42.4278C28.088 42.4901 28.0662 42.5472 28.0472 42.594L27.4042 44.1877Z" fill="#AFB1B8"/>
<path d="M32.4557 41.7401C32.4883 41.7571 32.5163 41.7811 32.5374 41.8101L34.9212 44.7666C34.9212 44.7199 34.9212 44.6731 34.9212 44.629C34.9212 44.5849 34.9212 44.5408 34.9212 44.4992V41.7219H35.4089V45.6439H35.1364C35.0977 45.645 35.0594 45.637 35.0247 45.6206C34.9911 45.6019 34.9615 45.5772 34.9376 45.5479L32.5565 42.594C32.5591 42.639 32.5591 42.684 32.5565 42.729C32.5565 42.7731 32.5565 42.8121 32.5565 42.8484V45.6439H32.0688V41.7219H32.3576C32.3913 41.721 32.4248 41.7272 32.4557 41.7401Z" fill="#AFB1B8"/>
<path d="M39.4245 44.084V45.6414H38.8796V44.084L37.373 41.722H37.8607C37.9027 41.7196 37.9443 41.7316 37.9779 41.7557C38.0075 41.7809 38.0324 41.8108 38.0514 41.844L38.994 43.3676C39.0322 43.4325 39.0649 43.4922 39.0921 43.5493C39.1194 43.6064 39.1411 43.6609 39.1602 43.7154L39.231 43.5467C39.2575 43.485 39.2884 43.4252 39.3237 43.3676L40.2527 41.8336C40.2722 41.803 40.2961 41.775 40.3235 41.7505C40.3558 41.7236 40.3978 41.7097 40.4407 41.7116H40.9338L39.4245 44.084Z" fill="#AFB1B8"/>
<path d="M17.27 35.1403C17.507 35.1688 17.7468 35.1922 17.9892 35.2129C21.6652 33.6463 24.7749 31.0821 26.9297 27.8408C29.0844 24.5996 30.1887 20.8252 30.1044 16.9894L26.0533 13.1298C26.877 17.2137 26.4917 21.4355 24.9405 25.3227C23.3893 29.2099 20.7334 32.6092 17.27 35.1403Z" fill="#AFB1B8"/>
<path d="M15.8232 34.9607L15.9322 34.9815C19.6332 32.4594 22.4549 28.9375 24.0323 24.8712C25.6098 20.8049 25.8705 16.3812 24.7808 12.1722L19.0107 6.67493C21.3446 11.1936 22.284 16.2506 21.7197 21.2579C21.1555 26.2652 19.1107 31.017 15.8232 34.9607Z" fill="#AFB1B8"/>
<path d="M35.3921 21.5214C34.4117 25.736 32.0309 29.5371 28.603 32.3603C27.6019 33.1893 26.5221 33.9279 25.3774 34.5665C28.1687 33.7848 30.7343 32.4029 32.8764 30.5273C35.0184 28.6516 36.6798 26.3324 37.7323 23.7483L35.3921 21.5214Z" fill="#AFB1B8"/>
<path d="M34.4741 20.9008L31.1423 17.7264C31.0786 21.3455 29.9987 24.8824 28.0147 27.9694C26.0308 31.0563 23.2153 33.5807 19.8608 35.2802H19.8772C20.6247 35.2799 21.3716 35.2374 22.1139 35.153C25.2488 33.9339 28.0182 31.9944 30.1749 29.5076C32.3317 27.0207 33.8087 24.0638 34.4741 20.9008Z" fill="#AFB1B8"/>
<path d="M16.306 4.35676L12.3312 0.564636C8.77786 1.87284 5.72185 4.17261 3.56312 7.16295C1.40439 10.1533 0.24351 13.6949 0.232422 17.3242H0.232422C0.245739 21.3345 1.66251 25.2261 4.25848 28.3829C6.85446 31.5397 10.4814 33.7815 14.5651 34.7535C18.2107 30.5219 20.3451 25.293 20.6581 19.8266C20.9712 14.3603 19.4466 8.94117 16.306 4.35676Z" fill="#AFB1B8"/>
<path d="M43.6585 20.3169C43.6441 15.5589 41.6539 10.9997 38.1225 7.63528C34.5911 4.27085 29.8057 2.37467 24.8116 2.36097C22.5039 2.3587 20.2158 2.76441 18.0635 3.55752L42.3999 26.7435C43.2332 24.694 43.6599 22.5149 43.6585 20.3169Z" fill="#AFB1B8"/>
</svg>
