<svg width="48" height="53" viewBox="0 0 48 53" fill="none" xmlns="http://www.w3.org/2000/svg">
<path d="M6.80322 0.328003L14.5432 7.65526H36.1341V28.0949L43.874 35.4222V0.328003H6.80322Z" fill="#AFB1B8"/>
<path d="M0.448242 7.3465V41.4381H36.4599V27.887L14.7715 7.35493L0.448242 7.3465ZM29.5998 36.4514H6.14664V13.523H7.80447V34.8988H29.5998V36.4514Z" fill="#AFB1B8"/>
<path d="M10.8185 47.4655L11.6848 45.6812H12.4088L11.1469 48.0602V49.4462H10.4901V48.0602L9.22562 45.6812H9.95225L10.8185 47.4655ZM14.537 48.5696H13.0785L12.7734 49.4462H12.0933L13.5156 45.6812H14.1025L15.5273 49.4462H14.8447L14.537 48.5696ZM13.2621 48.0421H14.3534L13.8078 46.4803L13.2621 48.0421ZM17.1151 48.43C17.1151 48.2559 17.1625 48.0964 17.2573 47.9516C17.3521 47.8051 17.5391 47.6318 17.8184 47.4318C17.6719 47.2474 17.5693 47.0905 17.5107 46.9612C17.4538 46.8319 17.4254 46.7069 17.4254 46.5863C17.4254 46.2915 17.515 46.0588 17.6943 45.8881C17.8736 45.7157 18.1149 45.6295 18.4183 45.6295C18.6924 45.6295 18.9165 45.7105 19.0907 45.8726C19.2665 46.0329 19.3544 46.232 19.3544 46.4699C19.3544 46.6268 19.3148 46.7716 19.2355 46.9043C19.1562 47.0354 19.026 47.1664 18.845 47.2974L18.589 47.4836L19.3156 48.3421C19.4208 48.1352 19.4734 47.9051 19.4734 47.6516H20.019C20.019 48.1154 19.9104 48.4955 19.6932 48.792L20.2465 49.4462H19.5173L19.3053 49.1954C19.0363 49.3971 18.7157 49.4979 18.3433 49.4979C17.971 49.4979 17.6727 49.3997 17.4486 49.2032C17.2263 49.0049 17.1151 48.7472 17.1151 48.43ZM18.3614 48.9963C18.5735 48.9963 18.7717 48.9256 18.9562 48.7842L18.1339 47.8146L18.0537 47.8714C17.8469 48.0283 17.7434 48.2076 17.7434 48.4093C17.7434 48.5834 17.7994 48.7248 17.9115 48.8334C18.0236 48.942 18.1735 48.9963 18.3614 48.9963ZM18.0149 46.5708C18.0149 46.7156 18.1037 46.8974 18.2813 47.1164L18.5683 46.9198L18.6485 46.8552C18.7554 46.7604 18.8088 46.6389 18.8088 46.4906C18.8088 46.3923 18.7717 46.3087 18.6976 46.2398C18.6235 46.1691 18.5295 46.1337 18.4157 46.1337C18.2933 46.1337 18.1959 46.1751 18.1235 46.2579C18.0511 46.3406 18.0149 46.4449 18.0149 46.5708ZM24.8545 48.2205C24.8166 48.6222 24.6683 48.936 24.4098 49.1618C24.1512 49.3859 23.8072 49.4979 23.378 49.4979C23.078 49.4979 22.8134 49.4273 22.5841 49.2859C22.3566 49.1428 22.1807 48.9403 22.0566 48.6782C21.9325 48.4162 21.8679 48.1119 21.8627 47.7654V47.4137C21.8627 47.0586 21.9256 46.7457 22.0515 46.4751C22.1773 46.2044 22.3574 45.9958 22.5919 45.8493C22.8281 45.7028 23.1004 45.6295 23.409 45.6295C23.8245 45.6295 24.1589 45.7424 24.4123 45.9683C24.6658 46.1941 24.8131 46.513 24.8545 46.925H24.2029C24.1719 46.6544 24.0926 46.4596 23.965 46.3406C23.8391 46.2199 23.6538 46.1596 23.409 46.1596C23.1246 46.1596 22.9056 46.2639 22.7522 46.4725C22.6005 46.6794 22.5229 46.9836 22.5195 47.3853V47.7189C22.5195 48.1257 22.5919 48.436 22.7367 48.6498C22.8832 48.8635 23.097 48.9704 23.378 48.9704C23.6349 48.9704 23.8279 48.9127 23.9572 48.7972C24.0865 48.6817 24.1684 48.4895 24.2029 48.2205H24.8545ZM28.4463 47.662C28.4463 48.0309 28.3825 48.355 28.2549 48.6343C28.1273 48.9118 27.9446 49.1256 27.7067 49.2756C27.4705 49.4238 27.1982 49.4979 26.8896 49.4979C26.5845 49.4979 26.3121 49.4238 26.0725 49.2756C25.8346 49.1256 25.6501 48.9127 25.5191 48.6369C25.3898 48.361 25.3243 48.043 25.3226 47.6827V47.4706C25.3226 47.1034 25.3872 46.7794 25.5165 46.4984C25.6475 46.2174 25.8311 46.0027 26.0673 45.8545C26.3052 45.7045 26.5776 45.6295 26.8844 45.6295C27.1913 45.6295 27.4628 45.7036 27.699 45.8519C27.9369 45.9984 28.1205 46.2105 28.2497 46.488C28.379 46.7638 28.4445 47.0853 28.4463 47.4525V47.662ZM27.792 47.4655C27.792 47.0483 27.7127 46.7285 27.5542 46.5061C27.3973 46.2837 27.174 46.1725 26.8844 46.1725C26.6017 46.1725 26.3802 46.2837 26.2198 46.5061C26.0613 46.7268 25.9802 47.0397 25.9768 47.4448V47.662C25.9768 48.0757 26.0569 48.3955 26.2173 48.6213C26.3793 48.8472 26.6034 48.9601 26.8896 48.9601C27.1792 48.9601 27.4016 48.8498 27.5567 48.6291C27.7136 48.4084 27.792 48.0861 27.792 47.662V47.4655Z" fill="#AFB1B8"/>
</svg>
